<svg width="1363" height="167" viewBox="0 0 1363 167" fill="none" xmlns="http://www.w3.org/2000/svg">
<rect width="1363" height="167" rx="15" fill="#F0F0F0"/>
<path d="M0 15C0 6.71573 6.71573 0 15 0H37V167H15C6.71573 167 0 160.284 0 152V15Z" fill="#424241"/>
<path d="M100.906 50.9219L93.3945 48.2383V45.0859L103.602 49.375V51.6367L100.906 50.9219ZM93.3945 53.1719L100.918 50.4297L103.602 49.7852V52.0352L93.3945 56.3242V53.1719ZM123.277 47.8867V50.6289H114.371V47.8867H123.277ZM115.414 40.9375V58H111.898V40.9375H115.414ZM125.785 40.9375V58H122.281V40.9375H125.785ZM132.195 45.3203V58H128.809V45.3203H132.195ZM128.598 42.0156C128.598 41.5234 128.77 41.1172 129.113 40.7969C129.457 40.4766 129.918 40.3164 130.496 40.3164C131.066 40.3164 131.523 40.4766 131.867 40.7969C132.219 41.1172 132.395 41.5234 132.395 42.0156C132.395 42.5078 132.219 42.9141 131.867 43.2344C131.523 43.5547 131.066 43.7148 130.496 43.7148C129.918 43.7148 129.457 43.5547 129.113 43.2344C128.77 42.9141 128.598 42.5078 128.598 42.0156ZM138.359 48.0859V58H134.984V45.3203H138.16L138.359 48.0859ZM142.18 45.2383L142.121 48.3672C141.957 48.3438 141.758 48.3242 141.523 48.3086C141.297 48.2852 141.09 48.2734 140.902 48.2734C140.426 48.2734 140.012 48.3359 139.66 48.4609C139.316 48.5781 139.027 48.7539 138.793 48.9883C138.566 49.2227 138.395 49.5078 138.277 49.8438C138.168 50.1797 138.105 50.5625 138.09 50.9922L137.41 50.7812C137.41 49.9609 137.492 49.207 137.656 48.5195C137.82 47.8242 138.059 47.2188 138.371 46.7031C138.691 46.1875 139.082 45.7891 139.543 45.5078C140.004 45.2266 140.531 45.0859 141.125 45.0859C141.312 45.0859 141.504 45.1016 141.699 45.1328C141.895 45.1562 142.055 45.1914 142.18 45.2383ZM149.375 58.2344C148.391 58.2344 147.508 58.0781 146.727 57.7656C145.945 57.4453 145.281 57.0039 144.734 56.4414C144.195 55.8789 143.781 55.2266 143.492 54.4844C143.203 53.7344 143.059 52.9375 143.059 52.0938V51.625C143.059 50.6641 143.195 49.7852 143.469 48.9883C143.742 48.1914 144.133 47.5 144.641 46.9141C145.156 46.3281 145.781 45.8789 146.516 45.5664C147.25 45.2461 148.078 45.0859 149 45.0859C149.898 45.0859 150.695 45.2344 151.391 45.5312C152.086 45.8281 152.668 46.25 153.137 46.7969C153.613 47.3438 153.973 48 154.215 48.7656C154.457 49.5234 154.578 50.3672 154.578 51.2969V52.7031H144.5V50.4531H151.262V50.1953C151.262 49.7266 151.176 49.3086 151.004 48.9414C150.84 48.5664 150.59 48.2695 150.254 48.0508C149.918 47.832 149.488 47.7227 148.965 47.7227C148.52 47.7227 148.137 47.8203 147.816 48.0156C147.496 48.2109 147.234 48.4844 147.031 48.8359C146.836 49.1875 146.688 49.6016 146.586 50.0781C146.492 50.5469 146.445 51.0625 146.445 51.625V52.0938C146.445 52.6016 146.516 53.0703 146.656 53.5C146.805 53.9297 147.012 54.3008 147.277 54.6133C147.551 54.9258 147.879 55.168 148.262 55.3398C148.652 55.5117 149.094 55.5977 149.586 55.5977C150.195 55.5977 150.762 55.4805 151.285 55.2461C151.816 55.0039 152.273 54.6406 152.656 54.1562L154.297 55.9375C154.031 56.3203 153.668 56.6875 153.207 57.0391C152.754 57.3906 152.207 57.6797 151.566 57.9062C150.926 58.125 150.195 58.2344 149.375 58.2344ZM166.133 40.9375H169.637V52.2109C169.637 53.5234 169.355 54.6289 168.793 55.5273C168.238 56.4258 167.469 57.1016 166.484 57.5547C165.508 58.0078 164.383 58.2344 163.109 58.2344C161.836 58.2344 160.703 58.0078 159.711 57.5547C158.727 57.1016 157.953 56.4258 157.391 55.5273C156.836 54.6289 156.559 53.5234 156.559 52.2109V40.9375H160.074V52.2109C160.074 52.9766 160.195 53.6016 160.438 54.0859C160.68 54.5703 161.027 54.9258 161.48 55.1523C161.941 55.3789 162.484 55.4922 163.109 55.4922C163.75 55.4922 164.293 55.3789 164.738 55.1523C165.191 54.9258 165.535 54.5703 165.77 54.0859C166.012 53.6016 166.133 52.9766 166.133 52.2109V40.9375ZM175.695 47.7578V62.875H172.32V45.3203H175.449L175.695 47.7578ZM183.723 51.5195V51.7656C183.723 52.6875 183.613 53.543 183.395 54.332C183.184 55.1211 182.871 55.8086 182.457 56.3945C182.043 56.9727 181.527 57.4258 180.91 57.7539C180.301 58.0742 179.598 58.2344 178.801 58.2344C178.027 58.2344 177.355 58.0781 176.785 57.7656C176.215 57.4531 175.734 57.0156 175.344 56.4531C174.961 55.8828 174.652 55.2227 174.418 54.4727C174.184 53.7227 174.004 52.918 173.879 52.0586V51.4141C174.004 50.4922 174.184 49.6484 174.418 48.8828C174.652 48.1094 174.961 47.4414 175.344 46.8789C175.734 46.3086 176.211 45.8672 176.773 45.5547C177.344 45.2422 178.012 45.0859 178.777 45.0859C179.582 45.0859 180.289 45.2383 180.898 45.543C181.516 45.8477 182.031 46.2852 182.445 46.8555C182.867 47.4258 183.184 48.1055 183.395 48.8945C183.613 49.6836 183.723 50.5586 183.723 51.5195ZM180.336 51.7656V51.5195C180.336 50.9805 180.289 50.4844 180.195 50.0312C180.109 49.5703 179.969 49.168 179.773 48.8242C179.586 48.4805 179.336 48.2148 179.023 48.0273C178.719 47.832 178.348 47.7344 177.91 47.7344C177.449 47.7344 177.055 47.8086 176.727 47.957C176.406 48.1055 176.145 48.3203 175.941 48.6016C175.738 48.8828 175.586 49.2188 175.484 49.6094C175.383 50 175.32 50.4414 175.297 50.9336V52.5625C175.336 53.1406 175.445 53.6602 175.625 54.1211C175.805 54.5742 176.082 54.9336 176.457 55.1992C176.832 55.4648 177.324 55.5977 177.934 55.5977C178.379 55.5977 178.754 55.5 179.059 55.3047C179.363 55.1016 179.609 54.8242 179.797 54.4727C179.992 54.1211 180.129 53.7148 180.207 53.2539C180.293 52.793 180.336 52.2969 180.336 51.7656Z" fill="#888888"/>
<path d="M115.994 98.708V104.641H99.5806V98.708H115.994ZM102.151 86.0078V118H94.439V86.0078H102.151ZM121.18 86.0078V118H113.489V86.0078H121.18ZM124.805 106.354V105.893C124.805 104.15 125.054 102.546 125.552 101.081C126.05 99.6016 126.783 98.3198 127.75 97.2358C128.716 96.1519 129.91 95.3096 131.331 94.709C132.752 94.0938 134.393 93.7861 136.253 93.7861C138.128 93.7861 139.776 94.0938 141.197 94.709C142.632 95.3096 143.833 96.1519 144.8 97.2358C145.767 98.3198 146.5 99.6016 146.998 101.081C147.496 102.546 147.745 104.15 147.745 105.893V106.354C147.745 108.083 147.496 109.687 146.998 111.167C146.5 112.631 145.767 113.913 144.8 115.012C143.833 116.096 142.64 116.938 141.219 117.539C139.798 118.139 138.157 118.439 136.297 118.439C134.437 118.439 132.789 118.139 131.353 117.539C129.917 116.938 128.716 116.096 127.75 115.012C126.783 113.913 126.05 112.631 125.552 111.167C125.054 109.687 124.805 108.083 124.805 106.354ZM132.21 105.893V106.354C132.21 107.248 132.276 108.083 132.408 108.859C132.54 109.636 132.759 110.317 133.067 110.903C133.375 111.474 133.792 111.921 134.319 112.243C134.847 112.565 135.506 112.727 136.297 112.727C137.073 112.727 137.718 112.565 138.23 112.243C138.758 111.921 139.175 111.474 139.483 110.903C139.791 110.317 140.01 109.636 140.142 108.859C140.274 108.083 140.34 107.248 140.34 106.354V105.893C140.34 105.029 140.274 104.216 140.142 103.454C140.01 102.678 139.791 101.997 139.483 101.411C139.175 100.81 138.758 100.341 138.23 100.004C137.703 99.6675 137.044 99.499 136.253 99.499C135.477 99.499 134.825 99.6675 134.297 100.004C133.785 100.341 133.375 100.81 133.067 101.411C132.759 101.997 132.54 102.678 132.408 103.454C132.276 104.216 132.21 105.029 132.21 105.893ZM158.27 110.925L162.664 94.2256H167.3L165.652 102.597L161.302 118H157.588L158.27 110.925ZM156.534 94.2256L159.258 110.793L159.566 118H155.062L149.437 94.2256H156.534ZM171.211 110.441L173.958 94.2256H181.055L175.474 118H170.97L171.211 110.441ZM167.828 94.2256L172.266 110.881L172.947 118H169.19L164.927 102.641L163.345 94.2256H167.828ZM209.466 86.0078V118H201.753V86.0078H209.466ZM219.09 86.0078V91.9624H192.349V86.0078H219.09ZM216.475 106.354V105.893C216.475 104.15 216.724 102.546 217.222 101.081C217.72 99.6016 218.453 98.3198 219.419 97.2358C220.386 96.1519 221.58 95.3096 223.001 94.709C224.422 94.0938 226.062 93.7861 227.923 93.7861C229.798 93.7861 231.446 94.0938 232.867 94.709C234.302 95.3096 235.503 96.1519 236.47 97.2358C237.437 98.3198 238.169 99.6016 238.667 101.081C239.166 102.546 239.415 104.15 239.415 105.893V106.354C239.415 108.083 239.166 109.687 238.667 111.167C238.169 112.631 237.437 113.913 236.47 115.012C235.503 116.096 234.31 116.938 232.889 117.539C231.468 118.139 229.827 118.439 227.967 118.439C226.106 118.439 224.458 118.139 223.023 117.539C221.587 116.938 220.386 116.096 219.419 115.012C218.453 113.913 217.72 112.631 217.222 111.167C216.724 109.687 216.475 108.083 216.475 106.354ZM223.88 105.893V106.354C223.88 107.248 223.946 108.083 224.078 108.859C224.209 109.636 224.429 110.317 224.737 110.903C225.044 111.474 225.462 111.921 225.989 112.243C226.517 112.565 227.176 112.727 227.967 112.727C228.743 112.727 229.388 112.565 229.9 112.243C230.428 111.921 230.845 111.474 231.153 110.903C231.46 110.317 231.68 109.636 231.812 108.859C231.944 108.083 232.01 107.248 232.01 106.354V105.893C232.01 105.029 231.944 104.216 231.812 103.454C231.68 102.678 231.46 101.997 231.153 101.411C230.845 100.81 230.428 100.341 229.9 100.004C229.373 99.6675 228.714 99.499 227.923 99.499C227.146 99.499 226.495 99.6675 225.967 100.004C225.455 100.341 225.044 100.81 224.737 101.411C224.429 101.997 224.209 102.678 224.078 103.454C223.946 104.216 223.88 105.029 223.88 105.893ZM254.268 86.0078H266.858C269.319 86.0078 271.458 86.374 273.274 87.1064C275.091 87.8389 276.49 88.9229 277.471 90.3584C278.467 91.7939 278.965 93.5664 278.965 95.6758C278.965 97.5068 278.68 99.0376 278.108 100.268C277.537 101.499 276.739 102.517 275.713 103.322C274.703 104.113 273.523 104.765 272.176 105.278L269.649 106.706H259.08L259.036 100.751H266.858C267.84 100.751 268.653 100.576 269.297 100.224C269.942 99.8726 270.425 99.3745 270.748 98.73C271.084 98.0708 271.253 97.2871 271.253 96.3789C271.253 95.4561 271.084 94.665 270.748 94.0059C270.411 93.3467 269.913 92.8413 269.253 92.4897C268.609 92.1382 267.811 91.9624 266.858 91.9624H261.98V118H254.268V86.0078ZM271.78 118L264.705 103.85L272.879 103.806L280.042 117.67V118H271.78ZM297.159 112.221V94.2256H304.585V118H297.642L297.159 112.221ZM297.862 107.387L299.795 107.343C299.795 108.94 299.605 110.419 299.224 111.782C298.843 113.129 298.279 114.301 297.532 115.297C296.8 116.293 295.892 117.07 294.808 117.626C293.738 118.168 292.5 118.439 291.094 118.439C289.922 118.439 288.846 118.278 287.864 117.956C286.897 117.619 286.062 117.099 285.359 116.396C284.656 115.678 284.107 114.763 283.711 113.649C283.331 112.521 283.14 111.174 283.14 109.606V94.2256H290.545V109.65C290.545 110.178 290.611 110.632 290.743 111.013C290.875 111.394 291.065 111.716 291.314 111.979C291.563 112.229 291.871 112.419 292.237 112.551C292.618 112.668 293.05 112.727 293.533 112.727C294.646 112.727 295.518 112.492 296.148 112.023C296.778 111.555 297.217 110.917 297.466 110.112C297.73 109.306 297.862 108.398 297.862 107.387ZM315.945 99.3013V118H308.541V94.2256H315.484L315.945 99.3013ZM315.066 105.3L313.331 105.344C313.331 103.527 313.55 101.909 313.99 100.488C314.429 99.0522 315.052 97.8364 315.857 96.8403C316.663 95.8442 317.623 95.0898 318.736 94.5771C319.864 94.0498 321.116 93.7861 322.493 93.7861C323.592 93.7861 324.595 93.9473 325.503 94.2695C326.426 94.5918 327.217 95.1118 327.876 95.8296C328.55 96.5474 329.063 97.4995 329.415 98.686C329.781 99.8579 329.964 101.308 329.964 103.037V118H322.515V103.015C322.515 102.062 322.383 101.337 322.12 100.839C321.856 100.327 321.475 99.9751 320.977 99.7847C320.479 99.5942 319.871 99.499 319.153 99.499C318.392 99.499 317.747 99.6455 317.22 99.9385C316.692 100.231 316.268 100.642 315.945 101.169C315.638 101.682 315.411 102.29 315.264 102.993C315.132 103.696 315.066 104.465 315.066 105.3ZM345.85 107.871H339.544C339.544 106.582 339.632 105.446 339.808 104.465C339.998 103.469 340.32 102.575 340.774 101.784C341.229 100.993 341.844 100.261 342.62 99.5869C343.309 99.0156 343.902 98.4663 344.4 97.939C344.898 97.4116 345.279 96.877 345.542 96.335C345.806 95.793 345.938 95.2144 345.938 94.5991C345.938 93.8374 345.828 93.2148 345.608 92.7314C345.403 92.248 345.088 91.8892 344.664 91.6548C344.253 91.4058 343.733 91.2812 343.104 91.2812C342.591 91.2812 342.107 91.4058 341.653 91.6548C341.214 91.9038 340.855 92.292 340.577 92.8193C340.298 93.332 340.145 94.0132 340.115 94.8628H332.667C332.71 92.6802 333.194 90.9077 334.117 89.5454C335.054 88.1685 336.299 87.165 337.852 86.5352C339.419 85.8906 341.17 85.5684 343.104 85.5684C345.242 85.5684 347.081 85.8979 348.619 86.5571C350.157 87.2163 351.336 88.1978 352.156 89.5015C352.977 90.7905 353.387 92.3799 353.387 94.2695C353.387 95.5293 353.145 96.6279 352.662 97.5654C352.193 98.4883 351.556 99.3525 350.75 100.158C349.959 100.949 349.073 101.799 348.091 102.707C347.242 103.454 346.663 104.216 346.355 104.992C346.048 105.754 345.879 106.713 345.85 107.871ZM338.643 114.55C338.643 113.496 339.024 112.617 339.786 111.914C340.547 111.196 341.536 110.837 342.752 110.837C343.968 110.837 344.957 111.196 345.718 111.914C346.48 112.617 346.861 113.496 346.861 114.55C346.861 115.605 346.48 116.491 345.718 117.209C344.957 117.912 343.968 118.264 342.752 118.264C341.536 118.264 340.547 117.912 339.786 117.209C339.024 116.491 338.643 115.605 338.643 114.55Z" fill="#424241"/>
<path d="M1363 15C1363 6.71573 1356.28 0 1348 0H1134V167H1348C1356.28 167 1363 160.284 1363 152V15Z" fill="#33C37E"/>
<path d="M1260.77 81.3079C1263.96 81.3079 1267.09 82.2553 1269.74 84.0303C1272.4 85.8053 1274.47 88.3282 1275.69 91.2799C1276.92 94.2316 1277.24 97.4796 1276.61 100.613C1275.99 103.747 1274.45 106.625 1272.19 108.884C1269.93 111.143 1267.05 112.682 1263.92 113.305C1260.79 113.928 1257.54 113.608 1254.59 112.386C1251.64 111.163 1249.11 109.093 1247.34 106.436C1245.56 103.78 1244.62 100.657 1244.62 97.4617C1244.62 93.1774 1246.32 89.0686 1249.35 86.0392C1252.38 83.0098 1256.48 81.3079 1260.77 81.3079ZM1260.77 75.9233C1256.51 75.9233 1252.35 77.1865 1248.8 79.5532C1245.26 81.9198 1242.5 85.2837 1240.87 89.2193C1239.24 93.1549 1238.81 97.4856 1239.64 101.664C1240.48 105.842 1242.53 109.679 1245.54 112.692C1248.55 115.704 1252.39 117.755 1256.57 118.586C1260.75 119.417 1265.08 118.991 1269.01 117.361C1272.95 115.73 1276.31 112.97 1278.68 109.428C1281.04 105.886 1282.31 101.722 1282.31 97.4617C1282.31 91.7493 1280.04 86.271 1276 82.2317C1271.96 78.1925 1266.48 75.9233 1260.77 75.9233Z" fill="white"/>
<path d="M1274.23 49H1220.38C1218.96 49 1217.59 49.5673 1216.58 50.5771C1215.57 51.5869 1215 52.9565 1215 54.3846V108.231C1215 109.659 1215.57 111.028 1216.58 112.038C1217.59 113.048 1218.96 113.615 1220.38 113.615H1231.15V108.231H1220.38V70.5384H1279.62V54.3846C1279.62 52.9565 1279.05 51.5869 1278.04 50.5771C1277.03 49.5673 1275.66 49 1274.23 49ZM1220.38 65.1538V54.3846H1274.23V65.1538H1220.38Z" fill="white"/>
<path d="M1255.38 89.3849V105.539L1268.85 97.4618L1255.38 89.3849Z" fill="white"/>
</svg>
