<svg width="1363" height="301" viewBox="0 0 1363 301" fill="none" xmlns="http://www.w3.org/2000/svg">
<rect width="1363" height="301" rx="15" fill="#F0F0F0"/>
<path d="M0 15C0 6.71573 6.71573 0 15 0H37V301H15C6.71573 301 0 294.284 0 286V15Z" fill="#33C37E"/>
<path d="M121.326 120.421V127.672H101.265V120.421H121.326ZM104.407 104.898V144H94.981V104.898H104.407ZM127.664 104.898V144H118.265V104.898H127.664ZM142.784 114.942V144H133.707V114.942H142.784ZM133.169 107.45C133.169 106.161 133.635 105.104 134.566 104.281C135.497 103.457 136.705 103.045 138.191 103.045C139.677 103.045 140.886 103.457 141.817 104.281C142.748 105.104 143.213 106.161 143.213 107.45C143.213 108.739 142.748 109.795 141.817 110.619C140.886 111.442 139.677 111.854 138.191 111.854C136.705 111.854 135.497 111.442 134.566 110.619C133.635 109.795 133.169 108.739 133.169 107.45ZM157.5 122.14V144H148.45V114.942H156.91L157.5 122.14ZM166.094 114.728L165.933 123.133C165.575 123.097 165.092 123.053 164.483 122.999C163.874 122.945 163.364 122.918 162.952 122.918C161.896 122.918 160.983 123.044 160.213 123.294C159.461 123.527 158.834 123.885 158.333 124.369C157.85 124.834 157.492 125.425 157.259 126.141C157.044 126.857 156.945 127.69 156.963 128.639L155.325 127.564C155.325 125.613 155.513 123.84 155.889 122.247C156.283 120.636 156.838 119.248 157.554 118.084C158.27 116.903 159.139 115.999 160.159 115.372C161.18 114.728 162.326 114.405 163.597 114.405C164.044 114.405 164.483 114.432 164.913 114.486C165.36 114.54 165.754 114.62 166.094 114.728ZM182.745 144.537C180.381 144.537 178.269 144.17 176.407 143.436C174.545 142.684 172.969 141.655 171.68 140.348C170.409 139.041 169.433 137.537 168.753 135.836C168.09 134.135 167.759 132.336 167.759 130.438V129.417C167.759 127.287 168.055 125.318 168.646 123.509C169.236 121.683 170.114 120.09 171.277 118.729C172.441 117.368 173.9 116.312 175.655 115.56C177.409 114.79 179.45 114.405 181.778 114.405C183.837 114.405 185.681 114.736 187.31 115.399C188.939 116.061 190.318 117.01 191.446 118.246C192.592 119.481 193.46 120.976 194.051 122.73C194.66 124.485 194.964 126.454 194.964 128.639V132.318H171.224V126.651H186.128V125.953C186.146 124.986 185.976 124.163 185.618 123.482C185.278 122.802 184.777 122.283 184.114 121.925C183.452 121.567 182.646 121.388 181.697 121.388C180.713 121.388 179.898 121.603 179.253 122.032C178.627 122.462 178.134 123.053 177.776 123.805C177.436 124.539 177.194 125.389 177.051 126.356C176.908 127.323 176.836 128.343 176.836 129.417V130.438C176.836 131.512 176.98 132.488 177.266 133.365C177.57 134.243 178 134.994 178.555 135.621C179.128 136.23 179.808 136.704 180.596 137.044C181.402 137.385 182.315 137.555 183.335 137.555C184.571 137.555 185.788 137.322 186.988 136.856C188.187 136.391 189.217 135.621 190.076 134.547L194.185 139.435C193.594 140.276 192.753 141.091 191.661 141.878C190.586 142.666 189.297 143.311 187.793 143.812C186.29 144.295 184.607 144.537 182.745 144.537ZM220.289 104.898H229.715V130.438C229.715 133.482 229.079 136.06 227.808 138.172C226.537 140.267 224.756 141.852 222.464 142.926C220.172 144 217.478 144.537 214.38 144.537C211.319 144.537 208.624 144 206.297 142.926C203.987 141.852 202.179 140.267 200.872 138.172C199.583 136.06 198.938 133.482 198.938 130.438V104.898H208.392V130.438C208.392 132.049 208.624 133.365 209.09 134.386C209.555 135.388 210.236 136.122 211.131 136.588C212.026 137.053 213.109 137.286 214.38 137.286C215.669 137.286 216.753 137.053 217.63 136.588C218.507 136.122 219.17 135.388 219.617 134.386C220.065 133.365 220.289 132.049 220.289 130.438V104.898ZM244.351 120.528V155.172H235.301V114.942H243.733L244.351 120.528ZM262.183 129.122V129.686C262.183 131.799 261.941 133.759 261.458 135.567C260.975 137.376 260.258 138.951 259.31 140.294C258.361 141.637 257.179 142.684 255.765 143.436C254.368 144.17 252.748 144.537 250.904 144.537C249.167 144.537 247.672 144.152 246.419 143.382C245.166 142.612 244.118 141.547 243.277 140.187C242.435 138.826 241.755 137.268 241.236 135.514C240.717 133.759 240.305 131.906 240 129.955V129.229C240.305 127.135 240.717 125.192 241.236 123.402C241.755 121.594 242.435 120.018 243.277 118.675C244.118 117.333 245.157 116.285 246.392 115.533C247.645 114.781 249.14 114.405 250.877 114.405C252.721 114.405 254.341 114.754 255.738 115.453C257.152 116.151 258.334 117.153 259.283 118.46C260.25 119.75 260.975 121.298 261.458 123.106C261.941 124.915 262.183 126.92 262.183 129.122ZM253.133 129.686V129.122C253.133 127.994 253.052 126.965 252.891 126.034C252.73 125.085 252.47 124.261 252.112 123.563C251.772 122.865 251.316 122.328 250.743 121.952C250.17 121.576 249.463 121.388 248.621 121.388C247.654 121.388 246.84 121.54 246.177 121.844C245.533 122.131 245.014 122.578 244.62 123.187C244.244 123.778 243.975 124.521 243.814 125.416C243.671 126.293 243.608 127.323 243.626 128.504V130.707C243.59 132.067 243.724 133.267 244.029 134.305C244.333 135.326 244.861 136.122 245.613 136.695C246.365 137.268 247.386 137.555 248.675 137.555C249.534 137.555 250.25 137.358 250.823 136.964C251.396 136.552 251.853 135.988 252.193 135.272C252.533 134.538 252.775 133.696 252.918 132.748C253.061 131.799 253.133 130.778 253.133 129.686Z" fill="black"/>
<path d="M108.646 71.7456H113.755C113.653 73.4204 113.191 74.9072 112.371 76.2061C111.562 77.5049 110.429 78.5189 108.97 79.248C107.523 79.9772 105.78 80.3418 103.741 80.3418C102.146 80.3418 100.716 80.0684 99.4512 79.5215C98.1865 78.9632 97.1042 78.1657 96.2041 77.1289C95.3154 76.0921 94.6375 74.8389 94.1704 73.3691C93.7033 71.8994 93.4697 70.2531 93.4697 68.4302V66.7041C93.4697 64.8812 93.709 63.2349 94.1875 61.7651C94.6774 60.284 95.3724 59.0251 96.2725 57.9883C97.1839 56.9515 98.272 56.154 99.5366 55.5957C100.801 55.0374 102.214 54.7583 103.775 54.7583C105.848 54.7583 107.597 55.1343 109.021 55.8862C110.457 56.6382 111.568 57.675 112.354 58.9966C113.152 60.3182 113.63 61.8221 113.79 63.5083H108.663C108.606 62.5057 108.406 61.6569 108.064 60.9619C107.723 60.2555 107.204 59.7257 106.509 59.3726C105.826 59.008 104.914 58.8257 103.775 58.8257C102.92 58.8257 102.174 58.9852 101.536 59.3042C100.898 59.6232 100.363 60.1074 99.9297 60.7568C99.4967 61.4062 99.172 62.2266 98.9556 63.2178C98.7505 64.1976 98.6479 65.3483 98.6479 66.6699V68.4302C98.6479 69.7176 98.7448 70.8512 98.9385 71.8311C99.1322 72.7995 99.4284 73.6198 99.8271 74.292C100.237 74.9528 100.761 75.4541 101.399 75.7959C102.049 76.1263 102.829 76.2915 103.741 76.2915C104.812 76.2915 105.695 76.1206 106.39 75.7788C107.085 75.437 107.614 74.93 107.979 74.2578C108.355 73.5856 108.577 72.7482 108.646 71.7456ZM126.795 75.8301V67.5928C126.795 67.0003 126.698 66.4933 126.504 66.0718C126.311 65.6388 126.009 65.3027 125.599 65.0635C125.2 64.8242 124.681 64.7046 124.043 64.7046C123.497 64.7046 123.024 64.8014 122.625 64.9951C122.226 65.1774 121.919 65.4451 121.702 65.7983C121.486 66.1401 121.377 66.5446 121.377 67.0117H116.456C116.456 66.2256 116.638 65.4793 117.002 64.7729C117.367 64.0666 117.897 63.4456 118.592 62.9102C119.287 62.3633 120.113 61.936 121.07 61.6284C122.038 61.3208 123.121 61.167 124.317 61.167C125.752 61.167 127.028 61.4062 128.145 61.8848C129.262 62.3633 130.139 63.0811 130.777 64.0381C131.426 64.9951 131.751 66.1914 131.751 67.627V75.5396C131.751 76.5535 131.814 77.3853 131.939 78.0347C132.064 78.6727 132.247 79.231 132.486 79.7095V80H127.513C127.273 79.4987 127.091 78.8721 126.966 78.1201C126.852 77.3568 126.795 76.5934 126.795 75.8301ZM127.444 68.7378L127.479 71.5234H124.727C124.078 71.5234 123.514 71.5975 123.035 71.7456C122.557 71.8937 122.164 72.1045 121.856 72.3779C121.548 72.64 121.32 72.9476 121.172 73.3008C121.036 73.654 120.967 74.0413 120.967 74.4629C120.967 74.8844 121.064 75.2661 121.258 75.6079C121.451 75.9383 121.731 76.2004 122.095 76.394C122.46 76.5763 122.887 76.6675 123.377 76.6675C124.118 76.6675 124.761 76.5194 125.308 76.2231C125.855 75.9269 126.277 75.5623 126.573 75.1294C126.88 74.6965 127.04 74.2863 127.051 73.8989L128.35 75.9839C128.168 76.451 127.917 76.9352 127.598 77.4365C127.291 77.9378 126.897 78.4106 126.419 78.855C125.94 79.2879 125.365 79.6468 124.693 79.9316C124.021 80.2051 123.223 80.3418 122.3 80.3418C121.127 80.3418 120.062 80.1082 119.104 79.6411C118.159 79.1626 117.407 78.5075 116.849 77.6758C116.302 76.8327 116.028 75.8757 116.028 74.8047C116.028 73.8363 116.211 72.9761 116.575 72.2241C116.94 71.4722 117.475 70.8398 118.182 70.3271C118.899 69.8031 119.794 69.41 120.865 69.1479C121.936 68.8745 123.178 68.7378 124.59 68.7378H127.444ZM140.74 53.75V80H135.801V53.75H140.74ZM150.003 61.5088V80H145.064V61.5088H150.003ZM144.756 56.6895C144.756 55.9717 145.007 55.3792 145.508 54.9121C146.01 54.445 146.682 54.2114 147.525 54.2114C148.357 54.2114 149.023 54.445 149.524 54.9121C150.037 55.3792 150.293 55.9717 150.293 56.6895C150.293 57.4072 150.037 57.9997 149.524 58.4668C149.023 58.9339 148.357 59.1675 147.525 59.1675C146.682 59.1675 146.01 58.9339 145.508 58.4668C145.007 57.9997 144.756 57.4072 144.756 56.6895ZM158.89 65.4565V80H153.968V61.5088H158.582L158.89 65.4565ZM158.172 70.105H156.839C156.839 68.7378 157.015 67.5073 157.369 66.4136C157.722 65.3084 158.217 64.3685 158.855 63.5938C159.493 62.8076 160.251 62.2095 161.128 61.7993C162.017 61.3778 163.008 61.167 164.102 61.167C164.968 61.167 165.76 61.2923 166.478 61.543C167.195 61.7936 167.811 62.1924 168.323 62.7393C168.847 63.2861 169.246 64.0096 169.52 64.9097C169.804 65.8097 169.947 66.9092 169.947 68.208V80H164.991V68.1909C164.991 67.3706 164.877 66.7326 164.649 66.2769C164.421 65.8211 164.085 65.5021 163.641 65.3198C163.208 65.1261 162.672 65.0293 162.034 65.0293C161.373 65.0293 160.798 65.1603 160.308 65.4224C159.83 65.6844 159.431 66.049 159.112 66.5161C158.804 66.9718 158.571 67.5073 158.411 68.1226C158.252 68.7378 158.172 69.3986 158.172 70.105ZM182.2 80.3418C180.765 80.3418 179.477 80.1139 178.338 79.6582C177.199 79.1911 176.23 78.5474 175.433 77.7271C174.646 76.9067 174.043 75.9554 173.621 74.873C173.2 73.7793 172.989 72.6172 172.989 71.3867V70.7031C172.989 69.3018 173.188 68.02 173.587 66.8579C173.986 65.6958 174.555 64.6875 175.296 63.833C176.048 62.9785 176.959 62.3234 178.03 61.8677C179.101 61.4006 180.309 61.167 181.653 61.167C182.964 61.167 184.126 61.3835 185.14 61.8164C186.154 62.2493 187.002 62.8646 187.686 63.6621C188.381 64.4596 188.905 65.4167 189.258 66.5332C189.611 67.6383 189.788 68.8688 189.788 70.2246V72.2754H175.091V68.9941H184.952V68.6182C184.952 67.9346 184.826 67.325 184.576 66.7896C184.336 66.2427 183.972 65.8097 183.482 65.4907C182.992 65.1717 182.365 65.0122 181.602 65.0122C180.953 65.0122 180.394 65.1546 179.927 65.4395C179.46 65.7243 179.078 66.123 178.782 66.6357C178.497 67.1484 178.281 67.7523 178.133 68.4473C177.996 69.1309 177.928 69.8828 177.928 70.7031V71.3867C177.928 72.1273 178.03 72.8109 178.235 73.4375C178.452 74.0641 178.754 74.6053 179.141 75.061C179.54 75.5168 180.018 75.87 180.577 76.1206C181.146 76.3713 181.79 76.4966 182.508 76.4966C183.396 76.4966 184.222 76.3257 184.986 75.9839C185.761 75.6307 186.427 75.1009 186.985 74.3945L189.378 76.9922C188.991 77.5505 188.461 78.0859 187.789 78.5986C187.128 79.1113 186.33 79.5329 185.396 79.8633C184.462 80.1823 183.396 80.3418 182.2 80.3418ZM205.032 55.1172L210.228 66.4648L215.423 55.1172H221.011L212.825 70.9424V80H207.63V70.9424L199.427 55.1172H205.032ZM231.795 75.8301V67.5928C231.795 67.0003 231.698 66.4933 231.504 66.0718C231.311 65.6388 231.009 65.3027 230.599 65.0635C230.2 64.8242 229.681 64.7046 229.043 64.7046C228.497 64.7046 228.024 64.8014 227.625 64.9951C227.226 65.1774 226.919 65.4451 226.702 65.7983C226.486 66.1401 226.377 66.5446 226.377 67.0117H221.456C221.456 66.2256 221.638 65.4793 222.002 64.7729C222.367 64.0666 222.897 63.4456 223.592 62.9102C224.287 62.3633 225.113 61.936 226.07 61.6284C227.038 61.3208 228.121 61.167 229.317 61.167C230.752 61.167 232.028 61.4062 233.145 61.8848C234.262 62.3633 235.139 63.0811 235.777 64.0381C236.426 64.9951 236.751 66.1914 236.751 67.627V75.5396C236.751 76.5535 236.814 77.3853 236.939 78.0347C237.064 78.6727 237.247 79.231 237.486 79.7095V80H232.513C232.273 79.4987 232.091 78.8721 231.966 78.1201C231.852 77.3568 231.795 76.5934 231.795 75.8301ZM232.444 68.7378L232.479 71.5234H229.727C229.078 71.5234 228.514 71.5975 228.035 71.7456C227.557 71.8937 227.164 72.1045 226.856 72.3779C226.548 72.64 226.32 72.9476 226.172 73.3008C226.036 73.654 225.967 74.0413 225.967 74.4629C225.967 74.8844 226.064 75.2661 226.258 75.6079C226.451 75.9383 226.731 76.2004 227.095 76.394C227.46 76.5763 227.887 76.6675 228.377 76.6675C229.118 76.6675 229.761 76.5194 230.308 76.2231C230.855 75.9269 231.277 75.5623 231.573 75.1294C231.88 74.6965 232.04 74.2863 232.051 73.8989L233.35 75.9839C233.168 76.451 232.917 76.9352 232.598 77.4365C232.291 77.9378 231.897 78.4106 231.419 78.855C230.94 79.2879 230.365 79.6468 229.693 79.9316C229.021 80.2051 228.223 80.3418 227.3 80.3418C226.127 80.3418 225.062 80.1082 224.104 79.6411C223.159 79.1626 222.407 78.5075 221.849 77.6758C221.302 76.8327 221.028 75.8757 221.028 74.8047C221.028 73.8363 221.211 72.9761 221.575 72.2241C221.94 71.4722 222.475 70.8398 223.182 70.3271C223.899 69.8031 224.794 69.41 225.865 69.1479C226.936 68.8745 228.178 68.7378 229.59 68.7378H232.444ZM245.467 65.3369V80H240.528V61.5088H245.159L245.467 65.3369ZM244.783 70.105H243.416C243.416 68.8175 243.57 67.6326 243.877 66.5503C244.196 65.4565 244.658 64.5109 245.262 63.7134C245.877 62.9045 246.635 62.2778 247.535 61.8335C248.435 61.3892 249.477 61.167 250.662 61.167C251.482 61.167 252.234 61.2923 252.918 61.543C253.602 61.7822 254.188 62.1639 254.678 62.688C255.18 63.2007 255.567 63.8729 255.84 64.7046C256.114 65.5249 256.25 66.5104 256.25 67.6611V80H251.329V68.208C251.329 67.3649 251.215 66.7155 250.987 66.2598C250.759 65.804 250.434 65.485 250.013 65.3027C249.603 65.1204 249.107 65.0293 248.526 65.0293C247.888 65.0293 247.33 65.1603 246.851 65.4224C246.384 65.6844 245.997 66.049 245.689 66.5161C245.381 66.9718 245.153 67.5073 245.005 68.1226C244.857 68.7378 244.783 69.3986 244.783 70.105ZM255.789 69.541L254.029 69.7632C254.029 68.5555 254.177 67.4333 254.473 66.3965C254.781 65.3597 255.231 64.4482 255.823 63.6621C256.427 62.876 257.173 62.2664 258.062 61.8335C258.951 61.3892 259.976 61.167 261.138 61.167C262.027 61.167 262.836 61.298 263.565 61.5601C264.294 61.8107 264.915 62.2152 265.428 62.7734C265.952 63.3203 266.351 64.0381 266.624 64.9268C266.909 65.8154 267.051 66.9035 267.051 68.1909V80H262.112V68.1909C262.112 67.3364 261.998 66.687 261.771 66.2427C261.554 65.7869 261.235 65.4736 260.813 65.3027C260.403 65.1204 259.913 65.0293 259.344 65.0293C258.751 65.0293 258.233 65.1489 257.789 65.3882C257.344 65.616 256.974 65.9351 256.678 66.3452C256.382 66.7554 256.159 67.2339 256.011 67.7808C255.863 68.3162 255.789 68.903 255.789 69.541ZM275.784 65.3369V80H270.845V61.5088H275.477L275.784 65.3369ZM275.101 70.105H273.733C273.733 68.8175 273.887 67.6326 274.195 66.5503C274.514 65.4565 274.975 64.5109 275.579 63.7134C276.194 62.9045 276.952 62.2778 277.852 61.8335C278.752 61.3892 279.795 61.167 280.979 61.167C281.8 61.167 282.552 61.2923 283.235 61.543C283.919 61.7822 284.506 62.1639 284.996 62.688C285.497 63.2007 285.884 63.8729 286.158 64.7046C286.431 65.5249 286.568 66.5104 286.568 67.6611V80H281.646V68.208C281.646 67.3649 281.532 66.7155 281.304 66.2598C281.076 65.804 280.752 65.485 280.33 65.3027C279.92 65.1204 279.424 65.0293 278.843 65.0293C278.205 65.0293 277.647 65.1603 277.168 65.4224C276.701 65.6844 276.314 66.049 276.006 66.5161C275.699 66.9718 275.471 67.5073 275.323 68.1226C275.175 68.7378 275.101 69.3986 275.101 70.105ZM286.106 69.541L284.346 69.7632C284.346 68.5555 284.494 67.4333 284.791 66.3965C285.098 65.3597 285.548 64.4482 286.141 63.6621C286.744 62.876 287.491 62.2664 288.379 61.8335C289.268 61.3892 290.293 61.167 291.456 61.167C292.344 61.167 293.153 61.298 293.882 61.5601C294.611 61.8107 295.232 62.2152 295.745 62.7734C296.269 63.3203 296.668 64.0381 296.941 64.9268C297.226 65.8154 297.369 66.9035 297.369 68.1909V80H292.43V68.1909C292.43 67.3364 292.316 66.687 292.088 66.2427C291.871 65.7869 291.552 65.4736 291.131 65.3027C290.721 65.1204 290.231 65.0293 289.661 65.0293C289.069 65.0293 288.55 65.1489 288.106 65.3882C287.662 65.616 287.291 65.9351 286.995 66.3452C286.699 66.7554 286.477 67.2339 286.329 67.7808C286.181 68.3162 286.106 68.903 286.106 69.541ZM306.375 61.5088V80H301.436V61.5088H306.375ZM301.128 56.6895C301.128 55.9717 301.379 55.3792 301.88 54.9121C302.382 54.445 303.054 54.2114 303.897 54.2114C304.729 54.2114 305.395 54.445 305.896 54.9121C306.409 55.3792 306.666 55.9717 306.666 56.6895C306.666 57.4072 306.409 57.9997 305.896 58.4668C305.395 58.9339 304.729 59.1675 303.897 59.1675C303.054 59.1675 302.382 58.9339 301.88 58.4668C301.379 57.9997 301.128 57.4072 301.128 56.6895ZM315.262 65.4565V80H310.34V61.5088H314.954L315.262 65.4565ZM314.544 70.105H313.211C313.211 68.7378 313.388 67.5073 313.741 66.4136C314.094 65.3084 314.59 64.3685 315.228 63.5938C315.866 62.8076 316.623 62.2095 317.5 61.7993C318.389 61.3778 319.38 61.167 320.474 61.167C321.34 61.167 322.132 61.2923 322.85 61.543C323.567 61.7936 324.183 62.1924 324.695 62.7393C325.219 63.2861 325.618 64.0096 325.892 64.9097C326.176 65.8097 326.319 66.9092 326.319 68.208V80H321.363V68.1909C321.363 67.3706 321.249 66.7326 321.021 66.2769C320.793 65.8211 320.457 65.5021 320.013 65.3198C319.58 65.1261 319.044 65.0293 318.406 65.0293C317.745 65.0293 317.17 65.1603 316.68 65.4224C316.202 65.6844 315.803 66.049 315.484 66.5161C315.176 66.9718 314.943 67.5073 314.783 68.1226C314.624 68.7378 314.544 69.3986 314.544 70.105ZM338.572 80.3418C337.137 80.3418 335.849 80.1139 334.71 79.6582C333.571 79.1911 332.602 78.5474 331.805 77.7271C331.019 76.9067 330.415 75.9554 329.993 74.873C329.572 73.7793 329.361 72.6172 329.361 71.3867V70.7031C329.361 69.3018 329.56 68.02 329.959 66.8579C330.358 65.6958 330.927 64.6875 331.668 63.833C332.42 62.9785 333.331 62.3234 334.402 61.8677C335.473 61.4006 336.681 61.167 338.025 61.167C339.336 61.167 340.498 61.3835 341.512 61.8164C342.526 62.2493 343.375 62.8646 344.058 63.6621C344.753 64.4596 345.277 65.4167 345.63 66.5332C345.984 67.6383 346.16 68.8688 346.16 70.2246V72.2754H331.463V68.9941H341.324V68.6182C341.324 67.9346 341.198 67.325 340.948 66.7896C340.708 66.2427 340.344 65.8097 339.854 65.4907C339.364 65.1717 338.737 65.0122 337.974 65.0122C337.325 65.0122 336.766 65.1546 336.299 65.4395C335.832 65.7243 335.451 66.123 335.154 66.6357C334.869 67.1484 334.653 67.7523 334.505 68.4473C334.368 69.1309 334.3 69.8828 334.3 70.7031V71.3867C334.3 72.1273 334.402 72.8109 334.607 73.4375C334.824 74.0641 335.126 74.6053 335.513 75.061C335.912 75.5168 336.39 75.87 336.949 76.1206C337.518 76.3713 338.162 76.4966 338.88 76.4966C339.769 76.4966 340.595 76.3257 341.358 75.9839C342.133 75.6307 342.799 75.1009 343.357 74.3945L345.75 76.9922C345.363 77.5505 344.833 78.0859 344.161 78.5986C343.5 79.1113 342.702 79.5329 341.768 79.8633C340.834 80.1823 339.769 80.3418 338.572 80.3418Z" fill="#888888"/>
<rect x="92" y="181" width="1179" height="80" rx="13.3333" fill="#CCCCCC"/>
<rect x="107" y="196.333" width="208" height="49.3333" rx="4.66667" fill="#888888" stroke="#888888" stroke-width="4"/>
<path d="M150.833 213.167H156.802C157.969 213.167 158.983 213.34 159.844 213.687C160.705 214.035 161.368 214.549 161.833 215.229C162.306 215.91 162.542 216.75 162.542 217.75C162.542 218.618 162.406 219.344 162.135 219.927C161.865 220.51 161.486 220.993 161 221.375C160.521 221.75 159.962 222.059 159.323 222.302L158.125 222.979H153.115L153.094 220.156H156.802C157.267 220.156 157.653 220.073 157.958 219.906C158.264 219.74 158.493 219.503 158.646 219.198C158.806 218.885 158.885 218.514 158.885 218.083C158.885 217.646 158.806 217.271 158.646 216.958C158.486 216.646 158.25 216.406 157.937 216.24C157.632 216.073 157.253 215.99 156.802 215.99H154.49V228.333H150.833V213.167ZM159.135 228.333L155.781 221.625L159.656 221.604L163.052 228.177V228.333H159.135ZM170.042 228.542C169.125 228.542 168.306 228.399 167.583 228.115C166.861 227.823 166.25 227.424 165.75 226.917C165.257 226.41 164.878 225.826 164.615 225.167C164.358 224.507 164.229 223.809 164.229 223.073V222.677C164.229 221.851 164.344 221.087 164.573 220.385C164.802 219.677 165.142 219.059 165.594 218.531C166.045 218.003 166.611 217.594 167.292 217.302C167.972 217.003 168.764 216.854 169.667 216.854C170.465 216.854 171.181 216.983 171.813 217.24C172.444 217.497 172.979 217.865 173.417 218.344C173.861 218.823 174.198 219.403 174.427 220.083C174.663 220.764 174.781 221.528 174.781 222.375V223.802H165.573V221.604H171.354V221.333C171.361 220.958 171.295 220.639 171.156 220.375C171.024 220.111 170.83 219.91 170.573 219.771C170.316 219.632 170.003 219.562 169.635 219.562C169.253 219.562 168.938 219.646 168.688 219.812C168.444 219.979 168.253 220.208 168.115 220.5C167.983 220.785 167.889 221.115 167.833 221.49C167.778 221.865 167.75 222.26 167.75 222.677V223.073C167.75 223.49 167.806 223.868 167.917 224.208C168.035 224.549 168.201 224.84 168.417 225.083C168.639 225.319 168.903 225.503 169.208 225.635C169.521 225.767 169.875 225.833 170.271 225.833C170.75 225.833 171.222 225.743 171.688 225.562C172.153 225.382 172.552 225.083 172.885 224.667L174.479 226.562C174.25 226.889 173.924 227.205 173.5 227.51C173.083 227.816 172.583 228.066 172 228.26C171.417 228.448 170.764 228.542 170.042 228.542ZM182.063 225.5V220.854C182.063 220.535 182.017 220.26 181.927 220.031C181.837 219.802 181.694 219.625 181.5 219.5C181.306 219.368 181.045 219.302 180.719 219.302C180.455 219.302 180.229 219.347 180.042 219.437C179.854 219.528 179.712 219.663 179.615 219.844C179.517 220.024 179.469 220.253 179.469 220.531H175.958C175.958 220.01 176.073 219.528 176.302 219.083C176.538 218.632 176.872 218.24 177.302 217.906C177.74 217.573 178.26 217.316 178.865 217.135C179.476 216.948 180.156 216.854 180.906 216.854C181.802 216.854 182.601 217.003 183.302 217.302C184.01 217.601 184.569 218.049 184.979 218.646C185.389 219.236 185.594 219.979 185.594 220.875V225.49C185.594 226.226 185.635 226.785 185.719 227.167C185.802 227.542 185.92 227.872 186.073 228.156V228.333H182.552C182.385 227.986 182.26 227.562 182.177 227.062C182.101 226.556 182.063 226.035 182.063 225.5ZM182.49 221.448L182.51 223.323H180.958C180.632 223.323 180.354 223.368 180.125 223.458C179.903 223.549 179.722 223.674 179.583 223.833C179.451 223.986 179.354 224.16 179.292 224.354C179.236 224.549 179.208 224.753 179.208 224.969C179.208 225.177 179.257 225.365 179.354 225.531C179.458 225.691 179.597 225.816 179.771 225.906C179.944 225.997 180.139 226.042 180.354 226.042C180.743 226.042 181.073 225.969 181.344 225.823C181.622 225.67 181.833 225.486 181.979 225.271C182.125 225.056 182.198 224.854 182.198 224.667L182.969 226.104C182.83 226.382 182.67 226.663 182.49 226.948C182.316 227.233 182.097 227.497 181.833 227.74C181.576 227.976 181.26 228.17 180.885 228.323C180.51 228.469 180.056 228.542 179.521 228.542C178.826 228.542 178.188 228.399 177.604 228.115C177.028 227.83 176.566 227.434 176.219 226.927C175.872 226.413 175.698 225.823 175.698 225.156C175.698 224.573 175.802 224.052 176.01 223.594C176.226 223.135 176.549 222.747 176.979 222.427C177.41 222.108 177.958 221.865 178.625 221.698C179.292 221.531 180.076 221.448 180.979 221.448H182.49ZM192.302 225.833C192.628 225.833 192.906 225.774 193.135 225.656C193.372 225.531 193.549 225.358 193.667 225.135C193.792 224.906 193.851 224.632 193.844 224.312H197.146C197.153 225.16 196.944 225.903 196.521 226.542C196.104 227.174 195.535 227.667 194.812 228.021C194.097 228.368 193.288 228.542 192.385 228.542C191.503 228.542 190.733 228.399 190.073 228.115C189.413 227.823 188.861 227.42 188.417 226.906C187.979 226.385 187.649 225.778 187.427 225.083C187.212 224.389 187.104 223.635 187.104 222.823V222.583C187.104 221.771 187.212 221.017 187.427 220.323C187.649 219.622 187.979 219.014 188.417 218.5C188.861 217.979 189.41 217.576 190.062 217.292C190.722 217 191.49 216.854 192.365 216.854C193.302 216.854 194.128 217.031 194.844 217.385C195.566 217.74 196.132 218.253 196.542 218.927C196.951 219.601 197.153 220.417 197.146 221.375H193.844C193.851 221.035 193.799 220.729 193.687 220.458C193.576 220.187 193.403 219.972 193.167 219.812C192.937 219.646 192.642 219.562 192.281 219.562C191.92 219.562 191.628 219.642 191.406 219.802C191.184 219.962 191.014 220.184 190.896 220.469C190.785 220.747 190.708 221.066 190.667 221.427C190.632 221.788 190.615 222.174 190.615 222.583V222.823C190.615 223.24 190.632 223.632 190.667 224C190.708 224.361 190.788 224.681 190.906 224.958C191.024 225.229 191.194 225.444 191.417 225.604C191.639 225.757 191.934 225.833 192.302 225.833ZM204.583 217.062V219.5H197.792V217.062H204.583ZM199.219 214.26H202.729V224.656C202.729 224.955 202.764 225.187 202.833 225.354C202.903 225.514 203.021 225.628 203.188 225.698C203.361 225.76 203.59 225.792 203.875 225.792C204.076 225.792 204.243 225.788 204.375 225.781C204.507 225.767 204.632 225.75 204.75 225.729V228.24C204.451 228.337 204.139 228.41 203.813 228.458C203.486 228.514 203.139 228.542 202.771 228.542C202.021 228.542 201.378 228.424 200.844 228.187C200.316 227.951 199.913 227.58 199.635 227.073C199.358 226.566 199.219 225.906 199.219 225.094V214.26ZM224.125 213.167V228.333H220.479L215.115 218.896V228.333H211.458V213.167H215.115L220.479 222.604V213.167H224.125ZM232.125 225.5V220.854C232.125 220.535 232.08 220.26 231.99 220.031C231.899 219.802 231.757 219.625 231.563 219.5C231.368 219.368 231.108 219.302 230.781 219.302C230.517 219.302 230.292 219.347 230.104 219.437C229.917 219.528 229.774 219.663 229.677 219.844C229.58 220.024 229.531 220.253 229.531 220.531H226.021C226.021 220.01 226.135 219.528 226.365 219.083C226.601 218.632 226.934 218.24 227.365 217.906C227.802 217.573 228.323 217.316 228.927 217.135C229.538 216.948 230.219 216.854 230.969 216.854C231.865 216.854 232.663 217.003 233.365 217.302C234.073 217.601 234.632 218.049 235.042 218.646C235.451 219.236 235.656 219.979 235.656 220.875V225.49C235.656 226.226 235.698 226.785 235.781 227.167C235.865 227.542 235.983 227.872 236.135 228.156V228.333H232.615C232.448 227.986 232.323 227.562 232.24 227.062C232.163 226.556 232.125 226.035 232.125 225.5ZM232.552 221.448L232.573 223.323H231.021C230.694 223.323 230.417 223.368 230.188 223.458C229.965 223.549 229.785 223.674 229.646 223.833C229.514 223.986 229.417 224.16 229.354 224.354C229.299 224.549 229.271 224.753 229.271 224.969C229.271 225.177 229.319 225.365 229.417 225.531C229.521 225.691 229.66 225.816 229.833 225.906C230.007 225.997 230.201 226.042 230.417 226.042C230.806 226.042 231.135 225.969 231.406 225.823C231.684 225.67 231.896 225.486 232.042 225.271C232.188 225.056 232.26 224.854 232.26 224.667L233.031 226.104C232.892 226.382 232.733 226.663 232.552 226.948C232.378 227.233 232.16 227.497 231.896 227.74C231.639 227.976 231.323 228.17 230.948 228.323C230.573 228.469 230.118 228.542 229.583 228.542C228.889 228.542 228.25 228.399 227.667 228.115C227.09 227.83 226.628 227.434 226.281 226.927C225.934 226.413 225.76 225.823 225.76 225.156C225.76 224.573 225.865 224.052 226.073 223.594C226.288 223.135 226.611 222.747 227.042 222.427C227.472 222.108 228.021 221.865 228.688 221.698C229.354 221.531 230.139 221.448 231.042 221.448H232.552ZM243.542 217.062V219.5H236.75V217.062H243.542ZM238.177 214.26H241.687V224.656C241.687 224.955 241.722 225.187 241.792 225.354C241.861 225.514 241.979 225.628 242.146 225.698C242.319 225.76 242.549 225.792 242.833 225.792C243.035 225.792 243.201 225.788 243.333 225.781C243.465 225.767 243.59 225.75 243.708 225.729V228.24C243.41 228.337 243.097 228.41 242.771 228.458C242.444 228.514 242.097 228.542 241.729 228.542C240.979 228.542 240.337 228.424 239.802 228.187C239.274 227.951 238.872 227.58 238.594 227.073C238.316 226.566 238.177 225.906 238.177 225.094V214.26ZM248.646 217.062V228.333H245.125V217.062H248.646ZM244.917 214.156C244.917 213.656 245.097 213.247 245.458 212.927C245.819 212.608 246.288 212.448 246.865 212.448C247.441 212.448 247.91 212.608 248.271 212.927C248.632 213.247 248.813 213.656 248.813 214.156C248.813 214.656 248.632 215.066 248.271 215.385C247.91 215.705 247.441 215.865 246.865 215.865C246.288 215.865 245.819 215.705 245.458 215.385C245.097 215.066 244.917 214.656 244.917 214.156ZM254.875 225.927L257.094 217.062H260.792L257.104 228.333H254.917L254.875 225.927ZM253.563 217.062L255.75 225.927L255.729 228.333H253.531L249.854 217.062H253.563ZM267.146 228.542C266.229 228.542 265.41 228.399 264.688 228.115C263.965 227.823 263.354 227.424 262.854 226.917C262.361 226.41 261.983 225.826 261.719 225.167C261.462 224.507 261.333 223.809 261.333 223.073V222.677C261.333 221.851 261.448 221.087 261.677 220.385C261.906 219.677 262.247 219.059 262.698 218.531C263.149 218.003 263.715 217.594 264.396 217.302C265.076 217.003 265.868 216.854 266.771 216.854C267.569 216.854 268.285 216.983 268.917 217.24C269.549 217.497 270.083 217.865 270.521 218.344C270.965 218.823 271.302 219.403 271.531 220.083C271.767 220.764 271.885 221.528 271.885 222.375V223.802H262.677V221.604H268.458V221.333C268.465 220.958 268.399 220.639 268.26 220.375C268.128 220.111 267.934 219.91 267.677 219.771C267.42 219.632 267.108 219.562 266.74 219.562C266.358 219.562 266.042 219.646 265.792 219.812C265.549 219.979 265.358 220.208 265.219 220.5C265.087 220.785 264.993 221.115 264.938 221.49C264.882 221.865 264.854 222.26 264.854 222.677V223.073C264.854 223.49 264.91 223.868 265.021 224.208C265.139 224.549 265.306 224.84 265.521 225.083C265.743 225.319 266.007 225.503 266.313 225.635C266.625 225.767 266.979 225.833 267.375 225.833C267.854 225.833 268.326 225.743 268.792 225.562C269.257 225.382 269.656 225.083 269.99 224.667L271.583 226.562C271.354 226.889 271.028 227.205 270.604 227.51C270.188 227.816 269.688 228.066 269.104 228.26C268.521 228.448 267.868 228.542 267.146 228.542Z" fill="white"/>
<rect x="339" y="196.333" width="208" height="49.3333" rx="4.66667" fill="#888888" stroke="#888888" stroke-width="4"/>
<path d="M419.073 225.521V228.333H411.406V225.521H419.073ZM412.708 213.167V228.333H409.052V213.167H412.708ZM426.302 225.5V220.854C426.302 220.535 426.257 220.26 426.167 220.031C426.076 219.802 425.934 219.625 425.74 219.5C425.545 219.368 425.285 219.302 424.958 219.302C424.694 219.302 424.469 219.347 424.281 219.437C424.094 219.528 423.951 219.663 423.854 219.844C423.757 220.024 423.708 220.253 423.708 220.531H420.198C420.198 220.01 420.312 219.528 420.542 219.083C420.778 218.632 421.111 218.24 421.542 217.906C421.979 217.573 422.5 217.316 423.104 217.135C423.715 216.948 424.396 216.854 425.146 216.854C426.042 216.854 426.84 217.003 427.542 217.302C428.25 217.601 428.809 218.049 429.219 218.646C429.628 219.236 429.833 219.979 429.833 220.875V225.49C429.833 226.226 429.875 226.785 429.958 227.167C430.042 227.542 430.16 227.872 430.312 228.156V228.333H426.792C426.625 227.986 426.5 227.562 426.417 227.062C426.34 226.556 426.302 226.035 426.302 225.5ZM426.729 221.448L426.75 223.323H425.198C424.872 223.323 424.594 223.368 424.365 223.458C424.142 223.549 423.962 223.674 423.823 223.833C423.691 223.986 423.594 224.16 423.531 224.354C423.476 224.549 423.448 224.753 423.448 224.969C423.448 225.177 423.497 225.365 423.594 225.531C423.698 225.691 423.837 225.816 424.01 225.906C424.184 225.997 424.378 226.042 424.594 226.042C424.983 226.042 425.312 225.969 425.583 225.823C425.861 225.67 426.073 225.486 426.219 225.271C426.365 225.056 426.437 224.854 426.437 224.667L427.208 226.104C427.069 226.382 426.91 226.663 426.729 226.948C426.556 227.233 426.337 227.497 426.073 227.74C425.816 227.976 425.5 228.17 425.125 228.323C424.75 228.469 424.295 228.542 423.76 228.542C423.066 228.542 422.427 228.399 421.844 228.115C421.267 227.83 420.806 227.434 420.458 226.927C420.111 226.413 419.937 225.823 419.937 225.156C419.937 224.573 420.042 224.052 420.25 223.594C420.465 223.135 420.788 222.747 421.219 222.427C421.649 222.108 422.198 221.865 422.865 221.698C423.531 221.531 424.316 221.448 425.219 221.448H426.729ZM435.323 219.854V228.333H431.812V217.062H435.094L435.323 219.854ZM438.656 216.979L438.594 220.24C438.455 220.226 438.267 220.208 438.031 220.187C437.795 220.167 437.597 220.156 437.437 220.156C437.028 220.156 436.674 220.205 436.375 220.302C436.083 220.392 435.84 220.531 435.646 220.719C435.458 220.899 435.319 221.128 435.229 221.406C435.146 221.684 435.108 222.007 435.115 222.375L434.479 221.958C434.479 221.201 434.552 220.514 434.698 219.896C434.851 219.271 435.066 218.733 435.344 218.281C435.622 217.823 435.958 217.472 436.354 217.229C436.75 216.979 437.194 216.854 437.687 216.854C437.861 216.854 438.031 216.865 438.198 216.885C438.372 216.906 438.524 216.937 438.656 216.979ZM445.406 225.5V220.854C445.406 220.535 445.361 220.26 445.271 220.031C445.181 219.802 445.038 219.625 444.844 219.5C444.649 219.368 444.389 219.302 444.063 219.302C443.799 219.302 443.573 219.347 443.385 219.437C443.198 219.528 443.056 219.663 442.958 219.844C442.861 220.024 442.813 220.253 442.813 220.531H439.302C439.302 220.01 439.417 219.528 439.646 219.083C439.882 218.632 440.215 218.24 440.646 217.906C441.083 217.573 441.604 217.316 442.208 217.135C442.819 216.948 443.5 216.854 444.25 216.854C445.146 216.854 445.944 217.003 446.646 217.302C447.354 217.601 447.913 218.049 448.323 218.646C448.733 219.236 448.938 219.979 448.938 220.875V225.49C448.938 226.226 448.979 226.785 449.063 227.167C449.146 227.542 449.264 227.872 449.417 228.156V228.333H445.896C445.729 227.986 445.604 227.562 445.521 227.062C445.444 226.556 445.406 226.035 445.406 225.5ZM445.833 221.448L445.854 223.323H444.302C443.976 223.323 443.698 223.368 443.469 223.458C443.247 223.549 443.066 223.674 442.927 223.833C442.795 223.986 442.698 224.16 442.635 224.354C442.58 224.549 442.552 224.753 442.552 224.969C442.552 225.177 442.601 225.365 442.698 225.531C442.802 225.691 442.941 225.816 443.115 225.906C443.288 225.997 443.483 226.042 443.698 226.042C444.087 226.042 444.417 225.969 444.688 225.823C444.965 225.67 445.177 225.486 445.323 225.271C445.469 225.056 445.542 224.854 445.542 224.667L446.313 226.104C446.174 226.382 446.014 226.663 445.833 226.948C445.66 227.233 445.441 227.497 445.177 227.74C444.92 227.976 444.604 228.17 444.229 228.323C443.854 228.469 443.399 228.542 442.865 228.542C442.17 228.542 441.531 228.399 440.948 228.115C440.372 227.83 439.91 227.434 439.563 226.927C439.215 226.413 439.042 225.823 439.042 225.156C439.042 224.573 439.146 224.052 439.354 223.594C439.569 223.135 439.892 222.747 440.323 222.427C440.753 222.108 441.302 221.865 441.969 221.698C442.635 221.531 443.42 221.448 444.323 221.448H445.833ZM454.781 225.927L457 217.062H460.698L457.01 228.333H454.823L454.781 225.927ZM453.469 217.062L455.656 225.927L455.635 228.333H453.437L449.76 217.062H453.469ZM467.052 228.542C466.135 228.542 465.316 228.399 464.594 228.115C463.872 227.823 463.26 227.424 462.76 226.917C462.267 226.41 461.889 225.826 461.625 225.167C461.368 224.507 461.24 223.809 461.24 223.073V222.677C461.24 221.851 461.354 221.087 461.583 220.385C461.812 219.677 462.153 219.059 462.604 218.531C463.056 218.003 463.622 217.594 464.302 217.302C464.983 217.003 465.774 216.854 466.677 216.854C467.476 216.854 468.191 216.983 468.823 217.24C469.455 217.497 469.99 217.865 470.427 218.344C470.872 218.823 471.208 219.403 471.437 220.083C471.674 220.764 471.792 221.528 471.792 222.375V223.802H462.583V221.604H468.365V221.333C468.372 220.958 468.306 220.639 468.167 220.375C468.035 220.111 467.84 219.91 467.583 219.771C467.326 219.632 467.014 219.562 466.646 219.562C466.264 219.562 465.948 219.646 465.698 219.812C465.455 219.979 465.264 220.208 465.125 220.5C464.993 220.785 464.899 221.115 464.844 221.49C464.788 221.865 464.76 222.26 464.76 222.677V223.073C464.76 223.49 464.816 223.868 464.927 224.208C465.045 224.549 465.212 224.84 465.427 225.083C465.649 225.319 465.913 225.503 466.219 225.635C466.531 225.767 466.885 225.833 467.281 225.833C467.76 225.833 468.233 225.743 468.698 225.562C469.163 225.382 469.562 225.083 469.896 224.667L471.49 226.562C471.26 226.889 470.934 227.205 470.51 227.51C470.094 227.816 469.594 228.066 469.01 228.26C468.427 228.448 467.774 228.542 467.052 228.542ZM476.927 212.333V228.333H473.406V212.333H476.927Z" fill="white"/>
<rect x="571" y="196.333" width="208" height="49.3333" rx="4.66667" fill="#888888" stroke="#888888" stroke-width="4"/>
<path d="M643.26 213.167H646.24L649.625 223.719L653.01 213.167H655.99L650.833 228.333H648.417L643.26 213.167ZM641.448 213.167H644.531L645.104 224.792V228.333H641.448V213.167ZM654.719 213.167H657.812V228.333H654.146V224.792L654.719 213.167ZM663.448 227.01L666.365 217.062H670.135L665.604 230.01C665.507 230.295 665.378 230.601 665.219 230.927C665.059 231.26 664.84 231.576 664.563 231.875C664.285 232.174 663.927 232.417 663.49 232.604C663.059 232.792 662.524 232.885 661.885 232.885C661.545 232.885 661.295 232.868 661.135 232.833C660.983 232.806 660.747 232.753 660.427 232.677V230.167C660.517 230.167 660.594 230.167 660.656 230.167C660.726 230.167 660.802 230.167 660.885 230.167C661.26 230.167 661.559 230.128 661.781 230.052C662.01 229.976 662.184 229.865 662.302 229.719C662.427 229.573 662.524 229.396 662.594 229.187L663.448 227.01ZM662.708 217.062L664.927 224.948L665.313 228.667H662.958L658.948 217.062H662.708ZM679.031 224.302C679.031 224.066 678.997 223.854 678.927 223.667C678.858 223.472 678.729 223.292 678.542 223.125C678.354 222.958 678.083 222.792 677.729 222.625C677.382 222.451 676.924 222.271 676.354 222.083C675.688 221.861 675.045 221.611 674.427 221.333C673.809 221.049 673.257 220.719 672.771 220.344C672.285 219.962 671.899 219.517 671.615 219.01C671.33 218.497 671.188 217.899 671.188 217.219C671.188 216.566 671.333 215.979 671.625 215.458C671.917 214.931 672.323 214.483 672.844 214.115C673.372 213.74 673.99 213.455 674.698 213.26C675.406 213.059 676.181 212.958 677.021 212.958C678.132 212.958 679.111 213.153 679.958 213.542C680.813 213.924 681.479 214.469 681.958 215.177C682.444 215.878 682.688 216.708 682.688 217.667H679.052C679.052 217.285 678.972 216.948 678.813 216.656C678.66 216.365 678.427 216.135 678.115 215.969C677.802 215.802 677.41 215.719 676.938 215.719C676.479 215.719 676.094 215.788 675.781 215.927C675.469 216.066 675.233 216.253 675.073 216.49C674.913 216.719 674.833 216.972 674.833 217.25C674.833 217.479 674.896 217.687 675.021 217.875C675.153 218.056 675.337 218.226 675.573 218.385C675.816 218.545 676.108 218.698 676.448 218.844C676.795 218.99 677.184 219.132 677.615 219.271C678.42 219.528 679.135 219.816 679.76 220.135C680.392 220.448 680.924 220.806 681.354 221.208C681.792 221.604 682.122 222.056 682.344 222.562C682.573 223.069 682.688 223.642 682.688 224.281C682.688 224.962 682.556 225.566 682.292 226.094C682.028 226.622 681.649 227.069 681.156 227.437C680.663 227.799 680.073 228.073 679.385 228.26C678.698 228.448 677.931 228.542 677.083 228.542C676.306 228.542 675.538 228.444 674.781 228.25C674.031 228.049 673.351 227.743 672.74 227.333C672.128 226.917 671.639 226.385 671.271 225.74C670.91 225.087 670.729 224.312 670.729 223.417H674.396C674.396 223.861 674.455 224.236 674.573 224.542C674.691 224.847 674.865 225.094 675.094 225.281C675.323 225.462 675.604 225.594 675.938 225.677C676.271 225.753 676.653 225.792 677.083 225.792C677.549 225.792 677.924 225.726 678.208 225.594C678.493 225.455 678.701 225.274 678.833 225.052C678.965 224.823 679.031 224.573 679.031 224.302ZM693.031 225.833L697.26 229.187L694.99 231.104L690.833 227.75L693.031 225.833ZM697.437 220.448V221.062C697.437 222.222 697.274 223.264 696.948 224.187C696.628 225.104 696.17 225.889 695.573 226.542C694.983 227.187 694.285 227.684 693.479 228.031C692.674 228.372 691.785 228.542 690.812 228.542C689.833 228.542 688.937 228.372 688.125 228.031C687.319 227.684 686.618 227.187 686.021 226.542C685.431 225.889 684.972 225.104 684.646 224.187C684.326 223.264 684.167 222.222 684.167 221.062V220.448C684.167 219.288 684.326 218.247 684.646 217.323C684.972 216.399 685.427 215.615 686.01 214.969C686.601 214.316 687.299 213.819 688.104 213.479C688.917 213.132 689.812 212.958 690.792 212.958C691.764 212.958 692.653 213.132 693.458 213.479C694.271 213.819 694.972 214.316 695.562 214.969C696.16 215.615 696.622 216.399 696.948 217.323C697.274 218.247 697.437 219.288 697.437 220.448ZM693.719 221.062V220.427C693.719 219.677 693.653 219.017 693.521 218.448C693.396 217.872 693.208 217.389 692.958 217C692.708 216.611 692.399 216.319 692.031 216.125C691.67 215.924 691.257 215.823 690.792 215.823C690.306 215.823 689.882 215.924 689.521 216.125C689.16 216.319 688.858 216.611 688.615 217C688.372 217.389 688.187 217.872 688.062 218.448C687.944 219.017 687.885 219.677 687.885 220.427V221.062C687.885 221.806 687.944 222.465 688.062 223.042C688.187 223.611 688.372 224.094 688.615 224.49C688.865 224.885 689.17 225.184 689.531 225.385C689.899 225.587 690.326 225.687 690.812 225.687C691.278 225.687 691.691 225.587 692.052 225.385C692.413 225.184 692.715 224.885 692.958 224.49C693.208 224.094 693.396 223.611 693.521 223.042C693.653 222.465 693.719 221.806 693.719 221.062ZM709.323 225.521V228.333H701.656V225.521H709.323ZM702.958 213.167V228.333H699.302V213.167H702.958Z" fill="white"/>
</svg>
